<svg width="648" height="181" viewBox="0 0 648 181" fill="none" xmlns="http://www.w3.org/2000/svg">
<path d="M588.794 6.2002V120.8L588.799 121.512C589.176 151.349 613.252 175.615 643.284 175.995L644 176V152.6C626.673 152.6 612.447 138.84 612.007 121.622L611.996 120.8V76.7998H644V53.5996H611.996V6.2002H588.794ZM615.997 49.5996H648V80.7998H615.997V120.8C615.997 136.158 628.574 148.6 644 148.6H648V180H644C611.178 180 584.793 153.4 584.793 120.8V2.2002H615.997V49.5996Z" fill="white" fill-opacity="0.17"/>
<path d="M461.674 112.6V51.3994H438.471V112.6L438.476 113.419C438.912 147.772 466.705 175.756 501.058 176.194L501.877 176.2C536.805 176.2 565.039 148.045 565.478 113.419L565.484 112.6V51.3994H542.281V112.6L542.268 113.638C541.711 135.358 523.732 152.8 501.877 152.8V148.8C521.896 148.8 538.281 132.565 538.281 112.6V47.3994H569.484V112.6C569.484 149.801 539.298 180.2 501.877 180.2C464.648 180.2 434.471 149.792 434.471 112.6V47.3994H465.674V112.6C465.674 132.59 481.884 148.8 501.877 148.8V152.8L500.84 152.787C479.462 152.245 462.228 135.013 461.686 113.638L461.674 112.6Z" fill="white" fill-opacity="0.17"/>
<path d="M422.058 112.6C422.058 77.8731 394.097 49.4469 359.276 49.0049L358.452 49C323.449 49 295.046 77.5997 295.045 112.6C295.045 147.326 323.006 175.752 357.633 176.194L358.452 176.2C393.656 176.2 422.058 147.599 422.058 112.6ZM394.855 112.6C394.855 92.6348 378.471 76.3996 358.452 76.3994C338.459 76.3994 322.248 92.6088 322.248 112.6C322.248 132.59 338.459 148.8 358.452 148.8V152.8L357.414 152.787C336.036 152.245 318.803 135.013 318.261 113.638L318.248 112.6C318.248 90.3997 336.25 72.3994 358.452 72.3994L359.489 72.4131C381.218 72.9634 398.856 90.7465 398.856 112.6C398.856 134.799 380.654 152.8 358.452 152.8V148.8C378.471 148.8 394.855 132.565 394.855 112.6ZM426.059 112.6C426.059 149.8 395.873 180.2 358.452 180.2C321.223 180.2 291.045 149.792 291.045 112.6C291.045 75.407 321.223 45 358.452 45C395.873 45.0002 426.059 75.3989 426.059 112.6Z" fill="white" fill-opacity="0.17"/>
<path d="M154.17 4V112.6C154.17 147.326 182.131 175.752 216.757 176.194L217.577 176.2C252.78 176.2 281.183 147.6 281.183 112.6C281.183 77.8733 253.222 49.4472 218.596 49.0049L217.777 49C193.025 49 178.831 65.5321 178.773 65.5996H177.372V4H154.17ZM253.981 112.6C253.981 92.6346 237.595 76.3994 217.577 76.3994C197.584 76.3994 181.373 92.6088 181.373 112.6C181.373 132.59 197.584 148.8 217.577 148.8V152.8L216.539 152.787C194.816 152.237 177.372 134.453 177.372 112.6C177.372 90.3997 195.374 72.3994 217.577 72.3994C239.779 72.3994 257.981 90.3997 257.981 112.6L257.967 113.638C257.411 135.358 239.432 152.8 217.577 152.8V148.8C237.595 148.8 253.981 132.565 253.981 112.6ZM181.373 57.7744C182.901 56.5608 184.731 55.2318 186.856 53.9062C193.975 49.4637 204.452 45 217.777 45C255.006 45.0001 285.183 75.407 285.183 112.6C285.183 149.801 254.998 180.2 217.577 180.2C180.347 180.2 150.169 149.792 150.169 112.6V0H181.373V57.7744Z" fill="white" fill-opacity="0.17"/>
<path d="M131.013 112.6C131.013 77.8731 103.052 49.4469 68.2305 49.0049L67.4072 49C32.4037 49 4.00051 77.5997 4.0004 112.6C4.0004 147.326 31.9613 175.752 66.5878 176.194L67.4072 176.2H67.8066L68.9435 176.179C92.6497 175.491 106.411 159.6 106.411 159.6H107.811V173.8H131.013V112.6ZM103.81 112.6C103.81 92.6348 87.4257 76.3996 67.4072 76.3994C47.4144 76.3994 31.2034 92.6088 31.2033 112.6C31.2033 132.59 47.4143 148.8 67.4072 148.8V152.8L66.369 152.787C44.9912 152.245 27.7575 135.013 27.2156 113.638L27.2029 112.6C27.203 90.3997 45.205 72.3994 67.4072 72.3994L68.4444 72.4131C90.1733 72.9634 107.811 90.7465 107.811 112.6C107.811 134.799 89.6093 152.8 67.4072 152.8V148.8C87.4258 148.8 103.81 132.565 103.81 112.6ZM135.014 177.8H103.81V167.391C102.294 168.59 100.481 169.904 98.3801 171.217C91.3236 175.627 80.9577 180.092 67.8399 180.199L67.8233 180.2H67.4072C30.1779 180.2 0 149.792 0 112.6C0.000103573 75.407 30.178 45 67.4072 45C104.828 45.0002 135.014 75.3989 135.014 112.6V177.8Z" fill="white" fill-opacity="0.17"/>
</svg>
