<svg width="150" height="25" viewBox="0 0 150 25" fill="none" xmlns="http://www.w3.org/2000/svg">
<path d="M146.989 8.52422C148.436 8.52422 149.62 9.70775 149.62 11.1872C149.62 12.6337 148.436 13.8173 146.989 13.8173H137.521L127.757 23.5814C127.264 24.0746 126.573 24.3376 125.883 24.3376C125.554 24.3376 125.193 24.3047 124.864 24.1403C123.911 23.7458 123.253 22.7924 123.253 21.7075V11.1872C123.253 9.70775 124.437 8.52422 125.883 8.52422C127.33 8.52422 128.513 9.70775 128.513 11.1872V15.3624L134.562 9.31324C135.055 8.8201 135.746 8.52422 136.436 8.52422H146.989Z" fill="white"/>
<path d="M120.198 19.8665C121.217 20.8856 121.217 22.5623 120.198 23.5814C119.672 24.1075 119.014 24.3376 118.324 24.3376C117.666 24.3376 116.976 24.1075 116.483 23.5814L106.686 13.8173H102.51C101.064 13.8173 99.8802 12.6337 99.8802 11.1872C99.8802 9.70776 101.064 8.52422 102.51 8.52422H107.803C108.494 8.52422 109.151 8.8201 109.644 9.31324L120.198 19.8665ZM107.803 5.89413C106.324 5.89413 105.14 4.7106 105.14 3.26405C105.14 1.81751 106.324 0.633972 107.803 0.633972C109.25 0.633972 110.433 1.81751 110.433 3.26405C110.433 4.7106 109.25 5.89413 107.803 5.89413Z" fill="white"/>
<path d="M104.024 19.8664C105.044 20.8856 105.044 22.5623 104.024 23.5814C102.972 24.6006 101.329 24.6006 100.277 23.5814L91.5972 14.9022L82.918 23.5814C81.8988 24.6006 80.2221 24.6006 79.203 23.5814L70.5237 14.9022L61.8444 23.5814C61.3513 24.0746 60.6609 24.3376 59.9705 24.3376C59.6417 24.3376 59.2801 24.3047 58.9513 24.1403C57.9979 23.7458 57.3404 22.7924 57.3404 21.7075V11.1872C57.3404 9.70775 58.524 8.52422 59.9705 8.52422C61.417 8.52422 62.6006 9.70775 62.6006 11.1872V15.3624L68.6498 9.31324C69.7018 8.29408 71.3456 8.29408 72.3976 9.31324L81.0769 17.9925L89.7562 9.31324C90.7753 8.29408 92.452 8.29408 93.4712 9.31324L104.024 19.8664Z" fill="white"/>
<path d="M53.393 8.75435C54.3793 9.14886 55.0368 10.1023 55.0368 11.1872V21.7075C55.0368 23.1869 53.8532 24.3376 52.4067 24.3376C50.9273 24.3376 49.7437 23.1869 49.7437 21.7075V17.5322L43.7274 23.5814C43.2343 24.0746 42.5439 24.3376 41.8535 24.3376H36.5933C32.2208 24.3376 28.6702 20.8199 28.6702 16.4473C28.6702 12.0748 32.2208 8.52422 36.5933 8.52422H41.8535C43.3 8.52422 44.4836 9.70775 44.4836 11.1872C44.4836 12.6337 43.3 13.8173 41.8535 13.8173H36.5933C35.1139 13.8173 33.9304 15.0008 33.9304 16.4473C33.9304 17.8939 35.1139 19.0774 36.5933 19.0774H40.7686L50.5328 9.31324C51.2889 8.55709 52.4067 8.32696 53.393 8.75435Z" fill="white"/>
<path d="M23.7365 0.633972C25.183 0.633972 26.3666 1.81751 26.3666 3.26405V21.7075C26.3666 22.7924 25.7091 23.7458 24.7228 24.1403C24.394 24.3047 24.0653 24.3376 23.7365 24.3376C23.0461 24.3376 22.3557 24.0746 21.8626 23.5814L12.0984 13.8173H7.92312C6.4437 13.8173 5.26016 15.0008 5.26016 16.4473C5.26016 17.8939 6.4437 19.0774 7.92312 19.0774H13.1833C14.6298 19.0774 15.8134 20.261 15.8134 21.7075C15.8134 23.1869 14.6298 24.3376 13.1833 24.3376H7.92312C3.55061 24.3376 0 20.8199 0 16.4473C0 12.0748 3.55061 8.52422 7.92312 8.52422H13.1833C13.8737 8.52422 14.5641 8.8201 15.0572 9.31324L21.0735 15.3624V3.26405C21.0735 1.81751 22.2571 0.633972 23.7365 0.633972Z" fill="#F83D3D"/>
</svg>
