<svg width="1800" height="376" viewBox="0 0 1800 376" fill="none" xmlns="http://www.w3.org/2000/svg">
<g filter="url(#filter0_f_5_171)">
<ellipse cx="900" cy="329" rx="665" ry="86" fill="url(#paint0_linear_5_171)"/>
</g>
<path d="M1168.81 332.444C1173.46 334.018 1176.67 337.032 1176.67 340.515V342.29H1170.19V340.515C1170.19 337.568 1166.27 335.157 1161.4 335.157H1150.77V342.29H1144.35V313.889H1150.77V331.271H1157.97C1162.84 331.271 1166.76 328.86 1166.76 325.913V321.793H1173.24V325.913C1173.24 328.458 1171.52 330.769 1168.81 332.444Z" fill="white"/>
<path d="M1130.29 321.592H1136.7V342.089H1130.29V339.711H1129.9C1129.9 339.711 1126.02 342.458 1119.22 342.491C1119.22 342.491 1119.16 342.491 1119.11 342.491C1109.42 342.491 1101.57 337.702 1101.57 331.841V321.592H1107.99V331.841C1107.99 335.558 1112.97 338.606 1119.11 338.606C1125.25 338.606 1130.29 335.558 1130.29 331.841V321.592Z" fill="white"/>
<path d="M1089.41 321.793H1095.82V342.29H1089.41V333.147H1089.02C1089.02 333.147 1085.09 335.927 1078.23 335.927C1068.54 335.927 1060.69 331.171 1060.69 325.276V321.793H1067.11V325.276C1067.11 328.994 1072.09 332.042 1078.23 332.042C1084.37 332.042 1089.41 328.994 1089.41 325.276V321.793Z" fill="white"/>
<path d="M1032.52 321.793H1058.58V325.712H1048.79V342.29H1042.31V325.712H1032.52V321.793Z" fill="white"/>
<path d="M1012.26 321.19C1022 321.19 1029.86 325.98 1029.86 331.841C1029.86 337.735 1022 342.491 1012.26 342.491C1002.58 342.491 994.721 337.735 994.721 331.841C994.721 325.98 1002.58 321.19 1012.26 321.19ZM1012.26 338.606C1018.4 338.606 1023.44 335.558 1023.44 331.841C1023.44 328.123 1018.4 325.109 1012.26 325.109C1006.12 325.109 1001.14 328.123 1001.14 331.841C1001.14 335.558 1006.12 338.606 1012.26 338.606Z" fill="white"/>
<path d="M973.337 321.19C983.02 321.224 990.878 325.98 990.878 331.841C990.878 337.735 983.02 342.491 973.282 342.491C963.598 342.491 955.74 337.735 955.74 331.841V321.458C955.74 317.171 961.495 313.688 968.578 313.688V317.573C965.037 317.573 962.159 319.315 962.159 321.458V324.004H962.547C962.547 324.004 966.475 321.19 973.337 321.19ZM973.282 338.606C979.424 338.606 984.459 335.558 984.459 331.841C984.459 328.123 979.424 325.109 973.282 325.109C967.139 325.109 962.159 328.123 962.159 331.841C962.159 335.558 967.139 338.606 973.282 338.606Z" fill="white"/>
<path d="M932.07 321.19C941.809 321.19 949.666 325.98 949.666 331.841V342.089H943.247V339.711H942.86C942.86 339.711 938.931 342.491 932.125 342.491C932.125 342.491 932.125 342.491 932.07 342.491C922.386 342.491 914.529 337.735 914.529 331.841C914.529 325.98 922.386 321.19 932.07 321.19ZM932.07 338.606C938.212 338.606 943.247 335.558 943.247 331.841C943.247 328.123 938.212 325.109 932.07 325.109C925.928 325.109 920.948 328.123 920.948 331.841C920.948 335.558 925.928 338.606 932.07 338.606Z" fill="white"/>
<path d="M893.016 321.19C902.755 321.19 910.613 325.98 910.613 331.841C910.613 337.702 902.755 342.491 893.016 342.491C886.155 342.491 882.281 339.711 882.281 339.711H881.894V350.027H875.475V331.841C875.475 325.98 883.333 321.19 893.016 321.19ZM893.016 338.606C899.158 338.606 904.194 335.558 904.194 331.841C904.194 328.123 899.158 325.109 893.016 325.109C886.874 325.109 881.894 328.123 881.894 331.841C881.894 335.558 886.874 338.606 893.016 338.606Z" fill="white"/>
<path d="M867.45 331.606C869.276 332.578 870.493 333.984 870.493 335.793C870.493 337.802 868.944 342.491 854.723 342.491H853.837C839.616 342.491 838.122 337.802 838.122 335.793H844.541C844.541 336.496 844.541 338.606 853.837 338.606H854.723C864.019 338.606 864.019 336.496 864.019 335.793C864.019 333.85 860.256 333.817 859.813 333.817H849.3V329.898H858.983C859.426 329.898 863.189 329.831 863.189 327.889C863.189 327.219 863.189 325.109 853.893 325.109C844.541 325.109 844.541 327.219 844.541 327.889H838.122C838.122 325.879 839.616 321.19 853.893 321.19C868.114 321.19 869.663 325.879 869.663 327.889C869.663 329.429 868.778 330.635 867.45 331.606Z" fill="white"/>
<path d="M815.835 321.19C825.574 321.19 833.431 325.98 833.431 331.841V342.089H827.013V339.711H826.625C826.625 339.711 822.697 342.491 815.89 342.491C815.89 342.491 815.89 342.491 815.835 342.491C806.152 342.491 798.294 337.735 798.294 331.841C798.294 325.98 806.152 321.19 815.835 321.19ZM815.835 338.606C821.977 338.606 827.013 335.558 827.013 331.841C827.013 328.123 821.977 325.109 815.835 325.109C809.693 325.109 804.713 328.123 804.713 331.841C804.713 335.558 809.693 338.606 815.835 338.606Z" fill="white"/>
<path d="M776.781 321.19C786.52 321.19 794.378 325.98 794.378 331.841C794.378 337.702 786.52 342.491 776.781 342.491C769.92 342.491 766.047 339.711 766.047 339.711H765.659V350.027H759.24V331.841C759.24 325.98 767.098 321.19 776.781 321.19ZM776.781 338.606C782.924 338.606 787.959 335.558 787.959 331.841C787.959 328.123 782.924 325.109 776.781 325.109C770.639 325.109 765.659 328.123 765.659 331.841C765.659 335.558 770.639 338.606 776.781 338.606Z" fill="white"/>
<path d="M718.82 321.19C728.503 321.224 736.361 325.98 736.361 331.841C736.361 337.735 728.503 342.491 718.765 342.491C709.081 342.491 701.224 337.735 701.224 331.841V321.458C701.224 317.171 706.978 313.688 714.061 313.688V317.573C710.52 317.573 707.642 319.315 707.642 321.458V324.004H708.03C708.03 324.004 711.958 321.19 718.82 321.19ZM718.765 338.606C724.907 338.606 729.942 335.558 729.942 331.841C729.942 328.123 724.907 325.109 718.765 325.109C712.622 325.109 707.642 328.123 707.642 331.841C707.642 335.558 712.622 338.606 718.765 338.606Z" fill="white"/>
<path d="M689.748 333.583L695.946 334.621C695.392 335.927 694.396 337.166 693.013 338.271C691.574 339.41 689.859 340.348 687.756 341.085C685.709 341.788 683.495 342.257 681.171 342.424C680.452 342.458 679.733 342.491 678.958 342.491C677.464 342.491 675.915 342.391 674.421 342.123C672.207 341.788 670.215 341.185 668.389 340.348C666.508 339.477 664.958 338.405 663.741 337.166C662.579 335.927 661.804 334.587 661.528 333.181C661.251 331.807 661.417 330.434 661.97 329.095C662.579 327.755 663.575 326.516 664.958 325.444C666.397 324.305 668.112 323.334 670.16 322.631C672.262 321.927 674.476 321.458 676.8 321.291C679.069 321.124 681.337 321.224 683.551 321.559C685.764 321.927 687.756 322.53 689.582 323.367C691.464 324.205 693.013 325.277 694.23 326.516L695.835 328.224L671.377 336.764C671.654 336.932 671.93 337.099 672.262 337.233C673.425 337.769 674.697 338.137 676.081 338.372C677.519 338.573 678.958 338.64 680.341 338.539C681.835 338.439 683.274 338.137 684.547 337.702C685.875 337.233 686.981 336.63 687.867 335.927C688.752 335.224 689.361 334.453 689.748 333.583ZM668.112 333.382L686.594 326.918C686.317 326.784 686.041 326.616 685.709 326.482C684.547 325.946 683.274 325.578 681.891 325.344C680.895 325.176 679.954 325.109 678.958 325.109C678.515 325.109 678.073 325.109 677.63 325.143C676.136 325.277 674.697 325.544 673.425 326.013C672.096 326.482 670.99 327.052 670.104 327.788C669.219 328.492 668.61 329.262 668.223 330.099C667.836 330.937 667.725 331.807 667.946 332.678C668.002 332.913 668.057 333.147 668.112 333.382Z" fill="white"/>
<path d="M657.367 334.956C657.809 336.731 657.09 338.372 655.209 339.645C652.553 341.554 647.794 342.491 641.209 342.491C633.85 342.491 627.154 342.123 626.877 342.089L624 341.922V321.86L626.767 321.626C626.933 321.592 631.47 321.19 638.94 321.19C653.217 321.19 654.711 325.879 654.711 327.889C654.711 329.128 654.157 330.166 653.217 331.037C655.43 331.908 656.924 333.248 657.367 334.956ZM630.419 325.31V329.898H644.086C644.474 329.898 648.292 329.831 648.292 327.889C648.292 327.219 648.292 325.109 638.94 325.109C635.288 325.109 632.411 325.209 630.419 325.31ZM650.339 337.099C650.727 336.831 651.169 336.396 651.003 335.525C650.616 334.085 648.236 333.817 646.3 333.817H630.419V338.338C633.02 338.472 637.059 338.606 641.209 338.606C645.691 338.606 649.011 338.037 650.339 337.099Z" fill="white"/>
<path d="M1159.58 281C1169.32 281 1177.18 285.789 1177.18 291.65C1177.18 297.512 1169.32 302.301 1159.58 302.301C1152.72 302.301 1148.85 299.521 1148.85 299.521H1148.46V309.837H1142.04V291.65C1142.04 285.789 1149.9 281 1159.58 281ZM1159.58 298.416C1165.73 298.416 1170.76 295.368 1170.76 291.65C1170.76 287.933 1165.73 284.919 1159.58 284.919C1153.44 284.919 1148.46 287.933 1148.46 291.65C1148.46 295.368 1153.44 298.416 1159.58 298.416Z" fill="white"/>
<path d="M1129.75 281.402H1136.16V301.899H1129.75V299.521H1129.36C1129.36 299.521 1125.48 302.268 1118.68 302.301C1118.68 302.301 1118.62 302.301 1118.57 302.301C1108.88 302.301 1101.03 297.512 1101.03 291.651V281.402H1107.45V291.651C1107.45 295.368 1112.43 298.416 1118.57 298.416C1124.71 298.416 1129.75 295.368 1129.75 291.651V281.402Z" fill="white"/>
<path d="M1092.04 281.603C1093.81 281.603 1095.25 282.473 1095.25 283.545V302.1H1088.77V285.99L1074.61 293.861C1073.39 294.53 1071.51 294.53 1070.24 293.861L1056.07 285.99V302.1H1049.65V283.545C1049.65 282.473 1051.09 281.603 1052.86 281.603H1056.51C1057.29 281.603 1058.06 281.803 1058.67 282.105L1072.45 289.775L1086.17 282.105C1086.78 281.803 1087.56 281.603 1088.39 281.603H1092.04Z" fill="white"/>
<path d="M1026.26 281C1036 281 1043.85 285.789 1043.85 291.65V301.899H1037.43V299.521H1037.05C1037.05 299.521 1033.12 302.301 1026.31 302.301C1026.31 302.301 1026.31 302.301 1026.26 302.301C1016.57 302.301 1008.72 297.545 1008.72 291.65C1008.72 285.789 1016.57 281 1026.26 281ZM1026.26 298.416C1032.4 298.416 1037.43 295.368 1037.43 291.65C1037.43 287.933 1032.4 284.919 1026.26 284.919C1020.12 284.919 1015.14 287.933 1015.14 291.65C1015.14 295.368 1020.12 298.416 1026.26 298.416Z" fill="white"/>
<path d="M986.54 281C996.279 281 1004.14 285.789 1004.14 291.65V302.033C1004.14 306.353 998.381 309.837 991.243 309.837V305.918C994.84 305.918 997.717 304.176 997.717 302.033V299.521H997.33C997.33 299.521 993.401 302.301 986.54 302.301C976.856 302.301 968.999 297.545 968.999 291.65C968.999 285.789 976.856 281 986.54 281ZM986.54 298.416C992.682 298.416 997.717 295.368 997.717 291.65C997.717 287.933 992.682 284.919 986.54 284.919C980.398 284.919 975.418 287.933 975.418 291.65C975.418 295.368 980.398 298.416 986.54 298.416Z" fill="white"/>
<path d="M946.576 294.765C947.018 296.54 946.299 298.181 944.418 299.454C941.762 301.363 937.003 302.301 930.418 302.301C923.059 302.301 916.363 301.932 916.086 301.899L913.209 301.732V281.67L915.976 281.435C916.142 281.402 920.679 281 928.149 281C942.426 281 943.92 285.689 943.92 287.698C943.92 288.938 943.366 289.976 942.426 290.847C944.639 291.717 946.133 293.057 946.576 294.765ZM919.628 285.12V289.708H933.295C933.683 289.708 937.501 289.641 937.501 287.698C937.501 287.029 937.501 284.919 928.149 284.919C924.497 284.919 921.62 285.019 919.628 285.12ZM939.548 296.909C939.936 296.641 940.378 296.205 940.212 295.335C939.825 293.894 937.445 293.626 935.509 293.626H919.628V298.148C922.228 298.282 926.268 298.416 930.418 298.416C934.9 298.416 938.22 297.846 939.548 296.909Z" fill="white"/>
<path d="M890.353 281C900.092 281 907.949 285.789 907.949 291.65C907.949 297.545 900.092 302.301 890.353 302.301C880.669 302.301 872.812 297.545 872.812 291.65C872.812 285.789 880.669 281 890.353 281ZM890.353 298.416C896.495 298.416 901.53 295.368 901.53 291.65C901.53 287.933 896.495 284.919 890.353 284.919C884.211 284.919 879.231 287.933 879.231 291.65C879.231 295.368 884.211 298.416 890.353 298.416Z" fill="white"/>
<path d="M864.431 281.603C866.202 281.603 867.641 282.473 867.641 283.545V302.1H861.167V285.99L847.001 293.861C845.784 294.53 843.902 294.53 842.63 293.861L828.464 285.99V302.1H822.045V283.545C822.045 282.473 823.484 281.603 825.255 281.603H828.907C829.681 281.603 830.456 281.803 831.065 282.105L844.843 289.775L858.566 282.105C859.175 281.803 859.949 281.603 860.779 281.603H864.431Z" fill="white"/>
<path d="M798.651 281C808.39 281 816.247 285.789 816.247 291.65V301.899H809.829V299.521H809.441C809.441 299.521 805.513 302.301 798.706 302.301C798.706 302.301 798.706 302.301 798.651 302.301C788.968 302.301 781.11 297.545 781.11 291.65C781.11 285.789 788.968 281 798.651 281ZM798.651 298.416C804.793 298.416 809.829 295.368 809.829 291.65C809.829 287.933 804.793 284.919 798.651 284.919C792.509 284.919 787.529 287.933 787.529 291.65C787.529 295.368 792.509 298.416 798.651 298.416Z" fill="white"/>
<path d="M759.002 281.201C768.741 281.201 776.598 285.991 776.598 291.852V302.1H770.179V291.852C770.179 288.134 765.144 285.12 759.002 285.12C752.86 285.12 747.88 288.134 747.88 291.852V302.1H741.461V291.852C741.461 285.991 749.318 281.201 759.002 281.201Z" fill="white"/>
<path d="M719.34 281C729.078 281 736.936 285.789 736.936 291.65C736.936 297.512 729.078 302.301 719.34 302.301C712.478 302.301 708.605 299.521 708.605 299.521H708.217V309.837H701.799V291.65C701.799 285.789 709.656 281 719.34 281ZM719.34 298.416C725.482 298.416 730.517 295.368 730.517 291.65C730.517 287.933 725.482 284.919 719.34 284.919C713.197 284.919 708.217 287.933 708.217 291.65C708.217 295.368 713.197 298.416 719.34 298.416Z" fill="white"/>
<path d="M678.958 281C688.697 281 696.554 285.789 696.554 291.65V301.899H690.136V299.521H689.748C689.748 299.521 685.819 302.301 679.013 302.301C679.013 302.301 679.013 302.301 678.958 302.301C669.274 302.301 661.417 297.545 661.417 291.65C661.417 285.789 669.274 281 678.958 281ZM678.958 298.416C685.1 298.416 690.136 295.368 690.136 291.65C690.136 287.933 685.1 284.919 678.958 284.919C672.816 284.919 667.836 287.933 667.836 291.65C667.836 295.368 672.816 298.416 678.958 298.416Z" fill="white"/>
<path d="M657.367 294.765C657.809 296.54 657.09 298.181 655.209 299.454C652.553 301.363 647.794 302.301 641.209 302.301C633.85 302.301 627.154 301.932 626.877 301.899L624 301.732V281.67L626.767 281.435C626.933 281.402 631.47 281 638.94 281C653.217 281 654.711 285.689 654.711 287.698C654.711 288.938 654.157 289.976 653.217 290.847C655.43 291.717 656.924 293.057 657.367 294.765ZM630.419 285.12V289.708H644.086C644.474 289.708 648.292 289.641 648.292 287.698C648.292 287.029 648.292 284.919 638.94 284.919C635.288 284.919 632.411 285.019 630.419 285.12ZM650.339 296.909C650.727 296.641 651.169 296.205 651.003 295.335C650.616 293.894 648.236 293.626 646.3 293.626H630.419V298.148C633.02 298.282 637.059 298.416 641.209 298.416C645.691 298.416 649.011 297.846 650.339 296.909Z" fill="white"/>
<defs>
<filter id="filter0_f_5_171" x="-8" y="0" width="1816" height="658" filterUnits="userSpaceOnUse" color-interpolation-filters="sRGB">
<feFlood flood-opacity="0" result="BackgroundImageFix"/>
<feBlend mode="normal" in="SourceGraphic" in2="BackgroundImageFix" result="shape"/>
<feGaussianBlur stdDeviation="121.5" result="effect1_foregroundBlur_5_171"/>
</filter>
<linearGradient id="paint0_linear_5_171" x1="231.881" y1="317.678" x2="1579.92" y2="532.207" gradientUnits="userSpaceOnUse">
<stop stop-color="#B265ED"/>
<stop offset="0.495192" stop-color="#D73A3A"/>
<stop offset="1" stop-color="#140EC0"/>
</linearGradient>
</defs>
</svg>
