<svg width="1800" height="27" viewBox="0 0 1800 27" fill="none" xmlns="http://www.w3.org/2000/svg">
<mask id="path-1-inside-1_5_69" fill="white">
<path d="M0 0H1801V27H0V0Z"/>
</mask>
<path d="M1801 0V-10H1750.97V0V10H1801V0ZM1650.92 0V-10H1550.86V0V10H1650.92V0ZM1450.81 0V-10H1350.75V0V10H1450.81V0ZM1250.69 0V-10H1150.64V0V10H1250.69V0ZM1050.58 0V-10H950.528V0V10H1050.58V0ZM850.472 0V-10H750.417V0V10H850.472V0ZM650.361 0V-10H550.306V0V10H650.361V0ZM450.25 0V-10H350.195V0V10H450.25V0ZM250.139 0V-10H150.084V0V10H250.139V0ZM50.0279 0V-10H0V0V10H50.0279V0ZM1801 0V-20H1750.97V0V20H1801V0ZM1650.92 0V-20H1550.86V0V20H1650.92V0ZM1450.81 0V-20H1350.75V0V20H1450.81V0ZM1250.69 0V-20H1150.64V0V20H1250.69V0ZM1050.58 0V-20H950.528V0V20H1050.58V0ZM850.472 0V-20H750.417V0V20H850.472V0ZM650.361 0V-20H550.306V0V20H650.361V0ZM450.25 0V-20H350.195V0V20H450.25V0ZM250.139 0V-20H150.084V0V20H250.139V0ZM50.0279 0V-20H0V0V20H50.0279V0Z" fill="white" mask="url(#path-1-inside-1_5_69)"/>
</svg>
